Coordinates
version=1
nRows=15
nColumns=38
inDegrees=yes

Units are S.I. units (second, meters, Newtons, ...)
Angles are in degrees.

endheader
time	pelvis_tilt	pelvis_list	pelvis_rotation	pelvis_tx	pelvis_ty	pelvis_tz	hip_flexion_r	hip_adduction_r	hip_rotation_r	knee_angle_r	ankle_angle_r	subtalar_angle_r	mtp_angle_r	hip_flexion_l	hip_adduction_l	hip_rotation_l	knee_angle_l	ankle_angle_l	subtalar_angle_l	mtp_angle_l	lumbar_extension	lumbar_bending	lumbar_rotation	arm_flex_r	arm_add_r	arm_rot_r	elbow_flex_r	pro_sup_r	wrist_flex_r	wrist_dev_r	arm_flex_l	arm_add_l	arm_rot_l	elbow_flex_l	pro_sup_l	wrist_flex_l	wrist_dev_l
      1.88000000	     -3.79668840	      0.23223732	     -5.18134936	      0.76459613	      0.86369141	     -0.17386697	     -5.49217837	      7.58725046	     12.00604731	    -26.38673376	     15.99950372	     -5.37715811	      0.00000000	     31.42391376	      1.03395909	     -7.03315876	    -15.62402208	      0.79793697	      4.09790518	      0.00000000	     -6.27218618	     -1.04941544	     10.76222572	     10.94301784	     -7.70445443	     41.42994331	     39.84650513	     44.53418229	      0.00000000	      0.00000000	    -10.58475132	     -5.17134851	     21.81897991	     33.05964347	     44.53418229	      0.00000000	      0.00000000
      1.89000000	     -3.80708936	      0.80972062	     -4.99077519	      0.77871923	      0.86353887	     -0.17376920	     -5.66017699	      6.92063702	     11.34111334	    -27.55180437	     14.50063069	     -4.71164998	      0.00000000	     31.71526045	      1.70479645	     -6.89348864	    -17.11620232	      0.23401139	      4.00063665	      0.00000000	     -6.07478358	     -1.98921462	     10.39515503	     10.66462108	     -7.41584075	     41.44450417	     39.76170413	     44.53729014	      0.00000000	      0.00000000	    -10.93064531	     -5.38361399	     21.84765206	     32.65274969	     44.53729014	      0.00000000	      0.00000000
      1.90000000	     -3.81154593	      1.51479568	     -4.63032366	      0.79274561	      0.86388514	     -0.17405165	     -5.38318168	      5.80833161	      9.36487772	    -29.31344300	     13.14066184	     -1.87319640	      0.00000000	     31.73745776	      2.93570688	     -4.67445604	    -18.30981605	      0.08721984	      2.93154225	      0.00000000	     -5.91422146	     -3.07992393	      9.88058608	     10.48008014	     -6.91807585	     41.20228438	     39.11480431	     44.55204622	      0.00000000	      0.00000000	    -10.93775511	     -5.43647109	     22.08668647	     31.37952546	     44.55204622	      0.00000000	      0.00000000
      1.91000000	     -3.51098799	      2.04052682	     -4.25661996	      0.80707151	      0.86508538	     -0.17397254	     -5.66589021	      5.21664258	      8.70287483	    -30.69858042	     10.51654780	     -1.56971104	      0.00000000	     31.49212829	      3.66107922	     -4.02808365	    -19.93926432	     -0.72247876	      3.19549137	      0.00000000	     -6.12364318	     -4.01345107	      9.40172399	     10.06064605	     -6.67128733	     41.26130898	     39.02734223	     44.55376153	      0.00000000	      0.00000000	    -11.11137954	     -5.68321194	     22.09073698	     31.14718150	     44.55376153	      0.00000000	      0.00000000
      1.92000000	     -3.20690878	      2.45107996	     -3.69114385	      0.82160550	      0.86673442	     -0.17396831	     -5.63760901	      4.60837588	      7.12953686	    -32.41450559	      7.35198240	     -0.77942356	      0.00000000	     31.03972348	      4.30213752	     -3.68141714	    -21.29032735	     -1.67560548	      3.13782882	      0.00000000	     -6.29766947	     -4.78424742	      8.73417290	      9.67555297	     -6.24616385	     41.26640348	     38.86002570	     44.55724432	      0.00000000	      0.00000000	    -11.18888889	     -5.96253393	     22.10800432	     30.76527931	     44.55724432	      0.00000000	      0.00000000
      1.93000000	     -2.76807451	      2.78599439	     -3.22672005	      0.83629828	      0.86864324	     -0.17385068	     -5.53191415	      4.04678638	      5.85657515	    -34.40574637	      4.20532493	      0.33377244	      0.00000000	     30.34847134	      4.89248427	     -3.12060144	    -22.47833335	     -2.17835394	      2.75348010	      0.00000000	     -6.63239291	     -5.50092824	      8.28887206	      9.15787533	     -5.95408752	     41.24754822	     38.62820554	     44.56054937	      0.00000000	      0.00000000	    -11.22533155	     -6.14051910	     22.12690020	     30.42335742	     44.56054937	      0.00000000	      0.00000000
      1.94000000	     -2.43856636	      3.17368285	     -2.77416394	      0.85079984	      0.87035505	     -0.17423360	     -4.96396821	      3.06861061	      3.85770344	    -36.75383877	      1.37485640	      2.81561425	      0.00000000	     29.50677131	      5.89365675	     -1.36807869	    -23.24654194	     -2.06343840	      1.01691375	      0.00000000	     -6.83260859	     -6.15992194	      7.79376326	      8.67334970	     -5.60182107	     40.97387010	     38.14060180	     44.56991037	      0.00000000	      0.00000000	    -11.15010838	     -6.17414626	     22.24540237	     29.65722515	     44.56991037	      0.00000000	      0.00000000
      1.95000000	     -2.17279238	      3.48071686	     -2.51509055	      0.86494607	      0.87204686	     -0.17459863	     -4.21103446	      2.25515814	      2.62095130	    -39.06129717	     -1.32140491	      4.46702496	      0.00000000	     28.56761527	      6.73065466	     -0.00058511	    -23.85680300	     -1.28215053	     -0.08183869	      0.00000000	     -6.96983092	     -6.68007155	      7.47659914	      8.18205916	     -5.37597611	     40.73911422	     37.85065131	     44.57998822	      0.00000000	      0.00000000	    -11.00746489	     -6.17090133	     22.42027577	     29.02088297	     44.57998822	      0.00000000	      0.00000000
      1.96000000	     -1.96555175	      3.74759395	     -2.32598382	      0.87861359	      0.87354324	     -0.17505190	     -3.29384479	      1.54326393	      1.82293660	    -41.38675817	     -2.50385112	      6.03519760	      0.00000000	     27.65351520	      7.37318106	      0.82247578	    -24.37738918	     -0.55346326	     -0.82376069	      0.00000000	     -7.07795880	     -7.08814127	      7.17099381	      7.74767759	     -5.27130408	     40.57647342	     37.71762064	     44.58825075	      0.00000000	      0.00000000	    -10.84392258	     -6.14792073	     22.57981585	     28.58622802	     44.58825075	      0.00000000	      0.00000000
      1.97000000	     -1.72885575	      3.76237587	     -2.21742343	      0.89168764	      0.87524085	     -0.17523317	     -2.48854749	      1.58738776	      2.24458352	    -43.50080172	     -2.15430926	      6.30526417	      0.00000000	     26.74853243	      7.55018773	      1.20668834	    -24.91973946	      0.14492931	     -0.89495129	      0.00000000	     -7.30682307	     -7.18550994	      6.83747749	      7.46390160	     -5.26995019	     40.58312840	     37.65005902	     44.58925974	      0.00000000	      0.00000000	    -10.72539069	     -6.12905405	     22.59689478	     28.55373875	     44.58925974	      0.00000000	      0.00000000
      1.98000000	     -1.66477787	      4.04448378	     -2.23932489	      0.90446693	      0.87632328	     -0.17559478	     -1.00280449	      0.92837418	      1.98331379	    -46.28969473	     -0.07889035	      7.89922334	      0.00000000	     25.88437279	      8.14881632	      2.01898090	    -25.18790763	      1.11520987	     -1.80951329	      0.00000000	     -7.30492889	     -7.52275870	      6.71298664	      7.16519406	     -5.24881451	     40.40757723	     37.59161246	     44.59740336	      0.00000000	      0.00000000	    -10.37941060	     -6.01904556	     22.75151783	     28.14885417	     44.59740336	      0.00000000	      0.00000000
      1.99000000	     -1.51667305	      4.11149728	     -2.28158793	      0.91708331	      0.87767919	     -0.17582736	      0.41272633	      0.63382884	      1.85622690	    -48.72280396	      1.20062932	      8.10678673	      0.00000000	     24.89547797	      8.46665236	      2.64505803	    -25.41139536	      2.03654598	     -2.31709634	      0.00000000	     -7.43650295	     -7.58843201	      6.55151912	      6.90693435	     -5.29483619	     40.26355100	     37.56150839	     44.60513954	      0.00000000	      0.00000000	    -10.02590548	     -5.90687727	     22.93474896	     27.83612645	     44.60513954	      0.00000000	      0.00000000
      2.00000000	     -1.31787585	      4.01676170	     -2.39559410	      0.92957949	      0.87923637	     -0.17590261	      1.86499322	      0.47602110	      1.65031091	    -50.99454907	      2.02846497	      7.78092097	      0.00000000	     23.83893773	      8.51196785	      2.93882997	    -25.61251583	      3.09366342	     -2.48269478	      0.00000000	     -7.63792418	     -7.45019083	      6.41141159	      6.74737459	     -5.38296330	     40.23634703	     37.50525136	     44.60696502	      0.00000000	      0.00000000	     -9.72696981	     -5.76867624	     22.99306105	     27.84305650	     44.60696502	      0.00000000	      0.00000000
      2.01000000	     -1.14815272	      3.83810173	     -2.55681506	      0.94191245	      0.88097944	     -0.17589592	      3.44598081	      0.47087870	      1.57875456	    -53.10302456	      2.97580907	      7.52804158	      0.00000000	     22.75874481	      8.44497310	      3.33540365	    -25.72963813	      3.94311462	     -2.52622706	      0.00000000	     -7.81885614	     -7.19818263	      6.29977708	      6.57656586	     -5.47800954	     40.22573876	     37.43833636	     44.60815766	      0.00000000	      0.00000000	     -9.42477018	     -5.63849822	     23.03452354	     27.87833570	     44.60815766	      0.00000000	      0.00000000
      2.02000000	     -0.99996479	      3.52410742	     -2.70272312	      0.95409640	      0.88286741	     -0.17568703	      5.10659795	      0.63837716	      1.45507507	    -54.98915961	      4.01768616	      7.19264422	      0.00000000	     21.65898664	      8.20036388	      3.31323047	    -25.67524229	      4.64670982	     -2.76020836	      0.00000000	     -7.98903712	     -6.81314827	      6.16557370	      6.39449581	     -5.56559135	     40.22648650	     37.36680677	     44.60893691	      0.00000000	      0.00000000	     -9.13702297	     -5.53234607	     23.06305614	     27.92880500	     44.60893691	      0.00000000	      0.00000000
